<?xml version="1.0" encoding="UTF-8" standalone="no"?><svg width="294" height="280" viewBox="0 0 294 280" xmlns="http://www.w3.org/2000/svg" xmlns:xlink="http://www.w3.org/1999/xlink"><svg width="123" height="10" viewBox="0 0 123 10" id="Logo-NAP_5S" y="18"><g fill="#000" fill-rule="evenodd"><path d="M8.665 9.427h-1.14L1.33 2.323v7.104H.083V.2h1.06l6.274 7.143V.2h1.25v9.227zM19.09 1.39h-3.925v2.787h3.79v1.19h-3.79v2.87h4.046v1.19h-5.376V.2h5.256v1.19zM30.683 1.39H27.48v8.037h-1.332V1.39h-3.205V.198h7.74V1.39zM38.43 5.656h-5.504V4.462h5.503v1.194zM48.75 9.427h-1.357l-1.236-2.72H42.22l-1.17 2.72h-1.356L43.672.145h.937l4.14 9.282zm-6.015-3.91h2.878L44.12 2.173l-1.385 3.342zM55.87 5.656h-5.503V4.462h5.504v1.194zM62.2.198c2.023 0 2.947 1.192 2.947 2.652 0 1.448-.98 2.585-3.124 2.585h-1.385v3.992h-1.33V.197H62.2zm-1.563 4.046h1.508c.99 0 1.63-.528 1.63-1.447 0-.677-.367-1.407-1.576-1.407h-1.563v2.854zM73.185.076c3.055 0 4.983 2.165 4.983 4.737 0 2.49-1.873 4.735-5.01 4.735-3.03 0-4.944-2.23-4.944-4.735 0-2.558 1.97-4.737 4.97-4.737zm0 8.255c2.078 0 3.613-1.5 3.613-3.517 0-2.03-1.535-3.52-3.613-3.52-2.064 0-3.6 1.49-3.6 3.52 0 2.016 1.536 3.518 3.6 3.518zM85.018.198c1.873 0 3.04.988 3.04 2.585 0 1.07-.555 1.868-1.547 2.26.843.555 1.36 1.407 2.066 2.558.394.636.625.948 1.262 1.827H88.25l-1.222-1.895c-1.223-1.894-1.78-2.11-2.458-2.11h-.557v4.005H82.68V.197h2.338zM84.013 4.23h.856c1.423 0 1.83-.73 1.818-1.5-.014-.867-.53-1.395-1.82-1.395h-.855V4.23zM100.04 1.39h-3.205v8.037h-1.33V1.39h-3.206V.198h7.74V1.39zM109.765 1.39h-3.925v2.786h3.79v1.192h-3.79v2.868h4.047v1.19h-5.378V.2h5.255v1.19zM117.665.198c1.873 0 3.04.988 3.04 2.585 0 1.07-.556 1.868-1.547 2.26.842.555 1.358 1.407 2.065 2.558.393.636.625.948 1.262 1.827h-1.588l-1.222-1.895c-1.224-1.894-1.78-2.11-2.458-2.11h-.557v4.005h-1.332V.197h2.337zM116.66 4.23h.854c1.427 0 1.834-.73 1.82-1.5-.013-.867-.53-1.395-1.82-1.395h-.854V4.23z"/></g></svg><svg width="294" height="18" viewBox="0 0 294 18" id="Logo-NAP_Normal"><g fill="#000" fill-rule="evenodd"><path d="M15.64 16.97h-2.06L2.404 4.18V16.97H.147V.356H2.06l11.325 12.86V.358h2.254V16.97zM40.455 2.502H33.37v5.016h6.84v2.144h-6.84v5.163h7.304v2.144h-9.706V.356h9.487v2.145zM67.38 2.502h-5.784V16.97h-2.402V2.5H53.41V.357h13.97v2.145zM87.555 10.18h-9.933V8.033h9.933v2.15zM114.185 16.97h-2.452l-2.23-4.897h-7.108l-2.108 4.896h-2.45l7.18-16.71h1.692l7.475 16.71zm-10.86-7.04h5.197l-2.696-6.016-2.5 6.015zM135.036 10.18h-9.934V8.03h9.934v2.15zM154.458.357c3.652 0 5.32 2.145 5.32 4.774 0 2.607-1.767 4.653-5.64 4.653h-2.5v7.185h-2.4V.358h5.22zm-2.82 7.283h2.72c1.79 0 2.943-.95 2.943-2.605 0-1.22-.662-2.533-2.843-2.533h-2.82V7.64zM180.284.137c5.515 0 8.995 3.897 8.995 8.526 0 4.482-3.382 8.524-9.044 8.524-5.466 0-8.923-4.017-8.923-8.524 0-4.604 3.554-8.526 8.97-8.526zm0 14.86c3.75 0 6.522-2.704 6.522-6.333 0-3.655-2.77-6.334-6.522-6.334-3.723 0-6.495 2.68-6.495 6.334 0 3.628 2.77 6.332 6.494 6.332zM207.642.357c3.38 0 5.49 1.778 5.49 4.652 0 1.924-1.005 3.36-2.795 4.067 1.52 1 2.452 2.533 3.727 4.605.71 1.143 1.127 1.704 2.28 3.287h-2.87l-2.205-3.412c-2.207-3.41-3.212-3.8-4.437-3.8h-1.005v7.21h-2.403V.358h4.217zm-1.814 7.258h1.544c2.572 0 3.307-1.314 3.285-2.703-.027-1.56-.958-2.51-3.285-2.51h-1.544v5.213zM240.755 2.502h-5.785V16.97h-2.402V2.5h-5.785V.357h13.972v2.145zM264.307 2.502h-7.083v5.015h6.838v2.145h-6.838v5.163h7.304v2.144h-9.706V.356h9.485v2.145zM284.566.357c3.38 0 5.49 1.778 5.49 4.652 0 1.924-1.006 3.36-2.795 4.067 1.52 1 2.45 2.533 3.728 4.605.71 1.143 1.127 1.704 2.278 3.287H290.4l-2.207-3.412c-2.207-3.41-3.21-3.8-4.436-3.8h-1.006v7.21h-2.402V.358h4.218zm-1.815 7.258h1.543c2.576 0 3.31-1.314 3.287-2.703-.026-1.56-.957-2.51-3.287-2.51h-1.542v5.213z"/></g></svg><svg width="25" height="25" viewBox="0 0 25 25" id="icon-arrow_down" y="205"><path d="M7 10l5.538 5.034 5.463-4.965" stroke-width="2" stroke="#000" fill="none" fill-rule="evenodd" stroke-linecap="round" stroke-linejoin="round"/></svg><svg width="25" height="25" viewBox="0 0 25 25" id="icon-arrow_down-active" x="75" y="180"><path d="M7 10l5.538 5.034 5.463-4.965" stroke-width="2" stroke="#CCC" fill="none" fill-rule="evenodd" stroke-linecap="round" stroke-linejoin="round"/></svg><svg width="25" height="25" viewBox="0 0 25 25" id="icon-arrow_left" x="100" y="180"><path d="M15 7l-5.034 5.538 4.965 5.463" stroke-width="2" stroke="#000" fill="none" fill-rule="evenodd" stroke-linecap="round" stroke-linejoin="round"/></svg><svg width="25" height="25" viewBox="0 0 25 25" id="icon-arrow_left-active" x="125" y="180"><path d="M15 7l-5.034 5.538 4.965 5.463" stroke-width="2" stroke="#CCC" fill="none" fill-rule="evenodd" stroke-linecap="round" stroke-linejoin="round"/></svg><svg width="25" height="25" viewBox="0 0 25 25" id="icon-arrow_right" x="150" y="180"><path d="M10 18l5.034-5.538L10.07 7" stroke-width="2" stroke="#000" fill="none" fill-rule="evenodd" stroke-linecap="round" stroke-linejoin="round"/></svg><svg width="25" height="25" viewBox="0 0 25 25" id="icon-arrow_right-active" x="175" y="180"><path d="M10 18l5.034-5.538L10.07 7" stroke-width="2" stroke="#CCC" fill="none" fill-rule="evenodd" stroke-linecap="round" stroke-linejoin="round"/></svg><svg width="25" height="25" viewBox="0 0 25 25" id="icon-arrow_up" x="200" y="180"><path d="M18 15l-5.538-5.034L7 14.93" stroke-width="2" stroke="#000" fill="none" fill-rule="evenodd" stroke-linecap="round" stroke-linejoin="round"/></svg><svg width="25" height="25" viewBox="0 0 25 25" id="icon-arrow_up-active" x="225" y="180"><path d="M18 15l-5.538-5.034L7 14.93" stroke-width="2" stroke="#CCC" fill="none" fill-rule="evenodd" stroke-linecap="round" stroke-linejoin="round"/></svg><svg width="50" height="50" viewBox="0 0 50 50" id="icon-carousel_arrow-left" x="150" y="28"><path d="M31 2L18.918 25.16l11.916 22.844" stroke="#999" stroke-width="2" fill="none" fill-rule="evenodd" stroke-linecap="round"/></svg><svg width="50" height="50" viewBox="0 0 50 50" id="icon-carousel_arrow-right" x="100" y="28"><path d="M19 2l12.082 23.16-11.916 22.844" stroke="#999" stroke-width="2" fill="none" fill-rule="evenodd" stroke-linecap="round"/></svg><svg width="25" height="25" viewBox="0 0 25 25" id="icon-cross_black" x="25" y="205"><g transform="translate(8 8)" stroke="#000" stroke-width="2" fill="none" fill-rule="evenodd" stroke-linecap="round"><path d="M.505.505l8.078 8.078M.505 8.583L8.583.505"/></g></svg><svg width="25" height="25" viewBox="0 0 25 25" id="icon-cross_grey" x="50" y="205"><g transform="translate(8 8)" stroke="#CCC" stroke-width="2" fill="none" fill-rule="evenodd" stroke-linecap="round"><path d="M.505.505l8.078 8.078M.505 8.583L8.583.505"/></g></svg><svg width="25" height="25" viewBox="0 0 25 25" id="icon-cross_red" x="75" y="205"><g transform="translate(8 8)" stroke="#D0011B" stroke-width="2" fill="none" fill-rule="evenodd" stroke-linecap="round"><path d="M.505.505l8.078 8.078M.505 8.583L8.583.505"/></g></svg><svg width="25" height="25" viewBox="0 0 25 25" id="icon-cross_white" x="100" y="205"><g transform="translate(8 8)" stroke="#FFF" stroke-width="2" fill="none" fill-rule="evenodd" stroke-linecap="round"><path d="M.505.505l8.078 8.078M.505 8.583L8.583.505"/></g></svg><svg width="25" height="25" viewBox="0 0 25 25" id="icon-information" x="125" y="205"><g transform="translate(6 6)" fill="none" fill-rule="evenodd"><circle stroke="#000" cx="6.5" cy="6.5" r="6.5"/><circle fill="#000" cx="6.287" cy="9.5" r=".5"/><path d="M5 5.456C5 4.658 5.372 4 6.425 4c1.052 0 1.424.632 1.424 1.456S7.107 6.55 6.754 6.872c-.353.32-.407.704-.407 1.21" stroke="#000" stroke-linecap="round"/></g></svg><svg width="25" height="25" viewBox="0 0 25 25" id="icon-language" x="150" y="205"><g transform="translate(3 2)" fill="none" fill-rule="evenodd"><rect stroke="#CCC" y="1" width="19" height="19" rx="2"/><path d="M5.97 11.837l3.44 2.445 4.716-8.447" stroke="#000" stroke-width="2" stroke-linecap="round" stroke-linejoin="round"/></g></svg><svg width="25" height="25" viewBox="0 0 25 25" id="icon-lock" x="175" y="205"><g transform="translate(8 6)" fill="none" fill-rule="evenodd"><path d="M4.5 6C6.433 6 8 5.433 8 3.5S6.433 0 4.5 0 1 1.567 1 3.5 2.567 6 4.5 6z" stroke="#000"/><path d="M5 8.915c.583-.206 1-.762 1-1.415C6 6.672 5.328 6 4.5 6S3 6.672 3 7.5c0 .653.417 1.21 1 1.415V11h1V8.915zM.998 4C.448 4 0 4.446 0 4.998V13h9V4.998C9 4.448 8.554 4 8.002 4H.998z" fill="#000"/></g></svg><svg width="25" height="25" viewBox="0 0 25 25" id="icon-menu_burger" x="200" y="205"><g transform="translate(4 5)" fill="#000" fill-rule="evenodd"><rect y="6" width="17" height="2" rx="2"/><rect width="17" height="2" rx="2"/><rect y="12" width="17" height="2" rx="2"/></g></svg><svg width="25" height="25" viewBox="0 0 25 25" id="icon-menu_close" x="225" y="205"><path d="M14.5 19.5l-6.034-7.056L14.43 5.5" stroke-width="2" stroke="#000" fill="none" fill-rule="evenodd" stroke-linecap="round" stroke-linejoin="round"/></svg><svg width="25" height="25" viewBox="0 0 25 25" id="icon-minus" x="250" y="205"><path d="M8 12.5h9.36" stroke="#000" stroke-width="2" fill="none" fill-rule="evenodd" stroke-linecap="round"/></svg><svg width="25" height="25" viewBox="0 0 25 25" id="icon-minus-active" y="230"><path d="M8 12.5h9.36" stroke="#CCC" stroke-width="2" fill="none" fill-rule="evenodd" stroke-linecap="round"/></svg><svg width="25" height="25" viewBox="0 0 25 25" id="icon-nap_live-wl" x="25" y="230"><path d="M12.5 15.25l-3.233 1.7.618-3.6L7.27 10.8l3.614-.525L12.5 7l1.616 3.275 3.615.525-2.615 2.55.618 3.6" fill="#000" fill-rule="evenodd"/></svg><svg width="25" height="25" viewBox="0 0 25 25" id="icon-plus" x="50" y="230"><g transform="translate(8 8)" stroke="#000" stroke-width="2" fill="none" fill-rule="evenodd" stroke-linecap="round"><path d="M0 4.5h9.36M4.545 0v9"/></g></svg><svg width="25" height="25" viewBox="0 0 25 25" id="icon-plus-active" x="75" y="230"><g transform="translate(8 8)" stroke="#CCC" stroke-width="2" fill="none" fill-rule="evenodd" stroke-linecap="round"><path d="M0 4.5h9.36M4.545 0v9"/></g></svg><svg width="25" height="25" viewBox="0 0 25 25" id="icon-search" x="100" y="230"><g transform="translate(5 5)" fill="none" fill-rule="evenodd"><ellipse stroke="#000" fill="none" cx="5.242" cy="5.31" rx="5.637" ry="5.69"/><path d="M8.44 10.56l3 3 1.06 1.06 2.12-2.12-1.06-1.06-3-3L9.5 7.38 7.38 9.5l1.06 1.06" fill="#000"/><path d="M10.44 12.56l2 2c.585.586 1.535.586 2.12 0 .586-.585.586-1.535 0-2.12l-2-2c-.585-.586-1.535-.586-2.12 0-.586.585-.586 1.535 0 2.12" fill="#000"/></g></svg><svg width="25" height="25" viewBox="0 0 25 25" id="icon-search-active" x="125" y="230"><g transform="translate(5 5)" fill="none" fill-rule="evenodd"><ellipse stroke="#CCC" fill="none" cx="5.242" cy="5.31" rx="5.637" ry="5.69"/><path d="M8.44 10.56l3 3 1.06 1.06 2.12-2.12-1.06-1.06-3-3L9.5 7.38 7.38 9.5l1.06 1.06" fill="#CCC"/><path d="M10.44 12.56l2 2c.585.586 1.535.586 2.12 0 .586-.585.586-1.535 0-2.12l-2-2c-.585-.586-1.535-.586-2.12 0-.586.585-.586 1.535 0 2.12" fill="#CCC"/></g></svg><svg width="25" height="25" viewBox="0 0 25 25" id="icon-search_clear" x="150" y="230"><g transform="translate(5 5)" fill="none" fill-rule="evenodd"><path d="M2.17 12.65c2.895 2.895 7.587 2.895 10.48 0 2.895-2.893 2.895-7.585 0-10.48-2.893-2.894-7.585-2.894-10.48 0-2.894 2.895-2.894 7.587 0 10.48z" fill="#999"/><path d="M4.45 3.643L3.364 4.73l6.777 6.777 1.088-1.087L4.45 3.643z" fill="#FFF"/><path d="M11.244 4.66l-1.087-1.086L3.38 10.35l1.087 1.088 6.777-6.777z" fill="#FFF"/></g></svg><svg width="25" height="25" viewBox="0 0 25 25" id="icon-search_clear-active" x="175" y="230"><g transform="translate(5 5)" fill="none" fill-rule="evenodd"><path d="M2.17 12.65c2.895 2.895 7.587 2.895 10.48 0 2.895-2.893 2.895-7.585 0-10.48-2.893-2.894-7.585-2.894-10.48 0-2.894 2.895-2.894 7.587 0 10.48z" fill="#CCC"/><path d="M4.45 3.643L3.364 4.73l6.777 6.777 1.088-1.087L4.45 3.643z" fill="#FFF"/><path d="M11.244 4.66l-1.087-1.086L3.38 10.35l1.087 1.088 6.777-6.777z" fill="#FFF"/></g></svg><svg width="25" height="25" viewBox="0 0 25 25" id="icon-shoppingbag_empty" x="250" y="230"><g transform="translate(4 4)" fill="none" fill-rule="evenodd"><path d="M2.793 6c-.554 0-1.076.446-1.162.98L.16 16.054c-.09.54.293.98.848.98H15.92c.558 0 .937-.447.85-.98L15.3 6.98c-.09-.542-.604-.98-1.164-.98H2.793z" stroke="#000" stroke-width="2"/><ellipse fill="#000" cx="4.447" cy="9.472" rx=".447" ry=".472"/><ellipse fill="#000" cx="12.447" cy="9.472" rx=".447" ry=".472"/><path d="M5.07 4.81c0-2.773 1.962-4.85 3.536-4.85 1.575 0 3.538 2.36 3.538 4.764" stroke="#000" stroke-linecap="round"/></g></svg><svg width="25" height="25" viewBox="0 0 25 25" id="icon-shoppingbag_empty-active" y="255"><g transform="translate(4 4)" fill="none" fill-rule="evenodd"><path d="M2.793 6c-.554 0-1.076.446-1.162.98L.16 16.054c-.09.54.293.98.848.98H15.92c.558 0 .937-.447.85-.98L15.3 6.98c-.09-.542-.604-.98-1.164-.98H2.793z" stroke="#CCC" stroke-width="2"/><ellipse fill="#CCC" cx="4.447" cy="9.472" rx=".447" ry=".472"/><ellipse fill="#CCC" cx="12.447" cy="9.472" rx=".447" ry=".472"/><path d="M5.07 4.81c0-2.773 1.962-4.85 3.536-4.85 1.575 0 3.538 2.36 3.538 4.764" stroke="#CCC" stroke-linecap="round"/></g></svg><svg width="25" height="25" viewBox="0 0 25 25" id="icon-shoppingbag_empty-active-rollover" x="25" y="255"><g transform="translate(3 3)" fill="none" fill-rule="evenodd"><path d="M2.678 6.267c-.55 0-1.07.435-1.162.98l-1.75 10.257c-.092.54.282.98.838.98H18.3c.555 0 .93-.435.837-.98l-1.75-10.258c-.09-.54-.614-.98-1.16-.98H2.676z" stroke="#CCC" stroke-width="2"/><ellipse fill="#CCC" cx="4.776" cy="10.111" rx=".521" ry=".523"/><ellipse fill="#CCC" cx="14.088" cy="10.111" rx=".521" ry=".523"/><path d="M5.5 4.95c0-3.07 2.284-5.37 4.117-5.37 1.833 0 4.117 2.612 4.117 5.274" stroke="#CCC" stroke-linecap="round"/></g></svg><svg width="25" height="25" viewBox="0 0 25 25" id="icon-shoppingbag_empty-rollover" x="208" y="154"><g transform="translate(3 3)" fill="none" fill-rule="evenodd"><path d="M2.678 6.267c-.55 0-1.07.435-1.162.98l-1.75 10.257c-.092.54.282.98.838.98H18.3c.555 0 .93-.435.837-.98l-1.75-10.258c-.09-.54-.614-.98-1.16-.98H2.676z" stroke="#000" stroke-width="2"/><ellipse fill="#000" cx="4.776" cy="10.111" rx=".521" ry=".523"/><ellipse fill="#000" cx="14.088" cy="10.111" rx=".521" ry=".523"/><path d="M5.5 4.95c0-3.07 2.284-5.37 4.117-5.37 1.833 0 4.117 2.612 4.117 5.274" stroke="#000" stroke-linecap="round"/></g></svg><svg width="25" height="25" viewBox="0 0 25 25" id="icon-shoppingbag_item" x="233" y="154"><g transform="translate(5 4)" fill="none" fill-rule="evenodd"><path d="M.128 16.083l1.538-9.07h11.602l1.53 9.07" stroke="#000" stroke-width="2" stroke-linecap="round" stroke-linejoin="round"/><ellipse fill="#000" cx="3.447" cy="9.472" rx=".447" ry=".472"/><ellipse fill="#000" cx="11.447" cy="9.472" rx=".447" ry=".472"/><path d="M4.07 4.81c0-2.773 1.962-4.85 3.536-4.85 1.575 0 3.538 2.36 3.538 4.764" stroke="#000" stroke-linecap="round"/></g></svg><svg width="25" height="25" viewBox="0 0 25 25" id="icon-shoppingbag_item-active" x="258" y="154"><g transform="translate(5 4)" fill="none" fill-rule="evenodd"><path d="M.128 16.083l1.538-9.07h11.602l1.53 9.07" stroke="#CCC" stroke-width="2" stroke-linecap="round" stroke-linejoin="round"/><ellipse fill="#CCC" cx="3.447" cy="9.472" rx=".447" ry=".472"/><ellipse fill="#CCC" cx="11.447" cy="9.472" rx=".447" ry=".472"/><path d="M4.07 4.81c0-2.773 1.962-4.85 3.536-4.85 1.575 0 3.538 2.36 3.538 4.764" stroke="#CCC" stroke-linecap="round"/></g></svg><svg width="25" height="25" viewBox="0 0 25 25" id="icon-shoppingbag_item-active-rollover" y="180"><g transform="translate(4 3)" fill="none" fill-rule="evenodd"><path d="M-.112 18.554L1.64 8.498h13.752l1.797 10.056" stroke="#D1D1D1" stroke-width="2" stroke-linecap="round" stroke-linejoin="round"/><ellipse fill="#D1D1D1" cx="3.752" cy="11.413" rx=".53" ry=".56"/><ellipse fill="#D1D1D1" cx="13.234" cy="11.413" rx=".53" ry=".56"/><path d="M4.49 5.886C4.49 2.6 6.814.138 8.68.138c1.868 0 4.194 2.797 4.194 5.647" stroke="#D1D1D1" stroke-linecap="round"/></g></svg><svg width="25" height="25" viewBox="0 0 25 25" id="icon-shoppingbag_item-added" x="25" y="180"><g transform="translate(5 4)" fill="none" fill-rule="evenodd"><path d="M.128 16.083l1.538-9.07h11.602l1.53 9.07" stroke="#FFF" stroke-width="2" stroke-linecap="round" stroke-linejoin="round"/><ellipse fill="#FFF" cx="3.447" cy="9.472" rx=".447" ry=".472"/><ellipse fill="#FFF" cx="11.447" cy="9.472" rx=".447" ry=".472"/><path d="M4.07 4.81c0-2.773 1.962-4.85 3.536-4.85 1.575 0 3.538 2.36 3.538 4.764" stroke="#FFF" stroke-linecap="round"/></g></svg><svg width="25" height="25" viewBox="0 0 25 25" id="icon-shoppingbag_item-rollover" x="50" y="180"><g transform="translate(4 3)" fill="none" fill-rule="evenodd"><path d="M-.112 18.554L1.64 8.498h13.752l1.797 10.056" stroke="#000" stroke-width="2" stroke-linecap="round" stroke-linejoin="round"/><ellipse fill="#000" cx="3.752" cy="11.413" rx=".53" ry=".56"/><ellipse fill="#000" cx="13.234" cy="11.413" rx=".53" ry=".56"/><path d="M4.49 5.886C4.49 2.6 6.814.138 8.68.138c1.868 0 4.194 2.797 4.194 5.647" stroke="#000" stroke-linecap="round"/></g></svg><svg width="24" height="25" viewBox="0 0 24 25" id="icon-size_guide" x="225" y="255"><g transform="translate(6.72 5)" stroke="#000" fill="none" fill-rule="evenodd"><rect width="10.56" height="15" rx="1"/><path d="M9.6 3H4.8M9.6 6H7.68M9.6 12H7.68M9.6 9H4.8" stroke-linecap="square"/></g></svg><svg width="26" height="26" viewBox="0 0 26 26" id="icon-social_facebook" x="104" y="128"><path d="M11.198 19.527v-6.582H9.5v-2.37h1.698V8.55c0-1.59 1.003-3.05 3.314-3.05.936 0 1.627.092 1.627.092l-.055 2.213s-.706-.007-1.476-.007c-.834 0-.968.393-.968 1.047v1.73h2.51l-.11 2.37h-2.4v6.582h-2.444" fill="#000" fill-rule="evenodd"/></svg><svg width="26" height="26" viewBox="0 0 26 26" id="icon-social_facebook-active" x="130" y="154"><path d="M11.198 19.527v-6.582H9.5v-2.37h1.698V8.55c0-1.59 1.003-3.05 3.314-3.05.936 0 1.627.092 1.627.092l-.055 2.213s-.706-.007-1.476-.007c-.834 0-.968.393-.968 1.047v1.73h2.51l-.11 2.37h-2.4v6.582h-2.444" fill="#CCC" fill-rule="evenodd"/></svg><svg width="26" height="26" viewBox="0 0 26 26" id="icon-social_facebook-hover" x="156" y="154"><path d="M11.198 19.527v-6.582H9.5v-2.37h1.698V8.55c0-1.59 1.003-3.05 3.314-3.05.936 0 1.627.092 1.627.092l-.055 2.213s-.706-.007-1.476-.007c-.834 0-.968.393-.968 1.047v1.73h2.51l-.11 2.37h-2.4v6.582h-2.444" fill="#3B5998" fill-rule="evenodd"/></svg><svg width="26" height="26" viewBox="0 0 26 26" id="icon-social_google" x="100" y="78"><path d="M18.28 10.528V7.65h-.9v2.878h-2.697v.925h2.698v2.672h.9v-2.672h2.797v-.925H18.28zm-6.24 3.087c-.246-.235-.308-.267-.308-.545s.14-.486.333-.652c.192-.166.93-.737 1.085-1.18.156-.444.276-.83.167-1.56-.068-.306-.317-1.05-.977-1.498.504.016.92-.01.92-.01s.69-.52.862-.52h-3.2s-1.123-.027-1.975.514c-.852.542-1.184 1.308-1.31 1.913-.124.606.12 1.676.79 2.21.673.535 1.455.614 2.08.5-.084.17-.167.4-.167.678s.256.734.45.912c-.81.064-1.292.104-2.04.344-.748.242-1.517.813-1.74 1.508-.224.695-.105 1.277.124 1.62.23.34.9.993 2.11 1.175 1.21.182 2.862-.118 3.62-.85.76-.732 1.02-1.33 1.02-2.014 0-.685-.334-1.172-.666-1.508-.333-.337-.935-.802-1.18-1.037m-2.213-1.577c-.483-.39-.893-1.4-.91-2.148-.015-.748.152-1.106.422-1.357.27-.25.483-.385 1.018-.385s1 .574 1.195.855c.032.046.286.545.354.775.067.23.29 1.18.067 1.785-.222.604-.887.817-1.1.817-.213 0-.562.05-1.045-.342m2.972 5.232c-.15.64-.888.968-1.133 1.026-.244.06-1.272.246-2.13-.07-.857-.315-1.18-.902-1.23-1.052-.053-.15-.23-.556-.068-1.02.25-.647.706-.93 1.34-1.15.634-.22 1.647-.197 1.647-.197.04 0 .078.02.11.026.03.006.53.407.8.647.27.24.503.513.617.722.24.54.09.84.047 1.068" fill="#000" fill-rule="evenodd"/></svg><svg width="26" height="26" viewBox="0 0 26 26" id="icon-social_google-active" x="126" y="78"><path d="M18.28 10.528V7.65h-.9v2.878h-2.697v.925h2.698v2.672h.9v-2.672h2.797v-.925H18.28zm-6.24 3.087c-.246-.235-.308-.267-.308-.545s.14-.486.333-.652c.192-.166.93-.737 1.085-1.18.156-.444.276-.83.167-1.56-.068-.306-.317-1.05-.977-1.498.504.016.92-.01.92-.01s.69-.52.862-.52h-3.2s-1.123-.027-1.975.514c-.852.542-1.184 1.308-1.31 1.913-.124.606.12 1.676.79 2.21.673.535 1.455.614 2.08.5-.084.17-.167.4-.167.678s.256.734.45.912c-.81.064-1.292.104-2.04.344-.748.242-1.517.813-1.74 1.508-.224.695-.105 1.277.124 1.62.23.34.9.993 2.11 1.175 1.21.182 2.862-.118 3.62-.85.76-.732 1.02-1.33 1.02-2.014 0-.685-.334-1.172-.666-1.508-.333-.337-.935-.802-1.18-1.037m-2.213-1.577c-.483-.39-.893-1.4-.91-2.148-.015-.748.152-1.106.422-1.357.27-.25.483-.385 1.018-.385s1 .574 1.195.855c.032.046.286.545.354.775.067.23.29 1.18.067 1.785-.222.604-.887.817-1.1.817-.213 0-.562.05-1.045-.342m2.972 5.232c-.15.64-.888.968-1.133 1.026-.244.06-1.272.246-2.13-.07-.857-.315-1.18-.902-1.23-1.052-.053-.15-.23-.556-.068-1.02.25-.647.706-.93 1.34-1.15.634-.22 1.647-.197 1.647-.197.04 0 .078.02.11.026.03.006.53.407.8.647.27.24.503.513.617.722.24.54.09.84.047 1.068" fill="#CCC" fill-rule="evenodd"/></svg><svg width="26" height="26" viewBox="0 0 26 26" id="icon-social_google-hover" x="152" y="78"><path d="M18.28 10.528V7.65h-.9v2.878h-2.697v.925h2.698v2.672h.9v-2.672h2.797v-.925H18.28zm-6.24 3.087c-.246-.235-.308-.267-.308-.545s.14-.486.333-.652c.192-.166.93-.737 1.085-1.18.156-.444.276-.83.167-1.56-.068-.306-.317-1.05-.977-1.498.504.016.92-.01.92-.01s.69-.52.862-.52h-3.2s-1.123-.027-1.975.514c-.852.542-1.184 1.308-1.31 1.913-.124.606.12 1.676.79 2.21.673.535 1.455.614 2.08.5-.084.17-.167.4-.167.678s.256.734.45.912c-.81.064-1.292.104-2.04.344-.748.242-1.517.813-1.74 1.508-.224.695-.105 1.277.124 1.62.23.34.9.993 2.11 1.175 1.21.182 2.862-.118 3.62-.85.76-.732 1.02-1.33 1.02-2.014 0-.685-.334-1.172-.666-1.508-.333-.337-.935-.802-1.18-1.037m-2.213-1.577c-.483-.39-.893-1.4-.91-2.148-.015-.748.152-1.106.422-1.357.27-.25.483-.385 1.018-.385s1 .574 1.195.855c.032.046.286.545.354.775.067.23.29 1.18.067 1.785-.222.604-.887.817-1.1.817-.213 0-.562.05-1.045-.342m2.972 5.232c-.15.64-.888.968-1.133 1.026-.244.06-1.272.246-2.13-.07-.857-.315-1.18-.902-1.23-1.052-.053-.15-.23-.556-.068-1.02.25-.647.706-.93 1.34-1.15.634-.22 1.647-.197 1.647-.197.04 0 .078.02.11.026.03.006.53.407.8.647.27.24.503.513.617.722.24.54.09.84.047 1.068" fill="#DD4B39" fill-rule="evenodd"/></svg><svg width="26" height="26" viewBox="0 0 26 26" id="icon-social_instagram" x="178" y="78"><path d="M18.02 12.01h-1.134c.083.32.132.654.132 1 0 2.214-1.794 4.008-4.007 4.008-2.21 0-4.005-1.794-4.005-4.007 0-.346.05-.68.13-1H8.003v5.51c0 .275.225.5.502.5h9.015c.276 0 .5-.225.5-.5v-5.51zm0-3.507c0-.276-.224-.5-.5-.5h-1.504c-.276 0-.5.224-.5.5v1.503c0 .276.224.5.5.5h1.503c.276 0 .5-.224.5-.5V8.503zm-5.01 2.004c-1.382 0-2.503 1.12-2.503 2.504s1.12 2.505 2.504 2.505 2.506-1.12 2.506-2.504c0-1.382-1.122-2.503-2.505-2.503zm5.01 9.015H8.002c-.83 0-1.502-.673-1.502-1.503V8c0-.83.673-1.502 1.502-1.502H18.02c.83 0 1.502.673 1.502 1.502V18.02c0 .83-.672 1.502-1.502 1.502z" fill="#000" fill-rule="evenodd"/></svg><svg width="26" height="26" viewBox="0 0 26 26" id="icon-social_instagram-active" x="204" y="78"><path d="M18.02 12.01h-1.134c.083.32.132.654.132 1 0 2.214-1.794 4.008-4.007 4.008-2.21 0-4.005-1.794-4.005-4.007 0-.346.05-.68.13-1H8.003v5.51c0 .275.225.5.502.5h9.015c.276 0 .5-.225.5-.5v-5.51zm0-3.507c0-.276-.224-.5-.5-.5h-1.504c-.276 0-.5.224-.5.5v1.503c0 .276.224.5.5.5h1.503c.276 0 .5-.224.5-.5V8.503zm-5.01 2.004c-1.382 0-2.503 1.12-2.503 2.504s1.12 2.505 2.504 2.505 2.506-1.12 2.506-2.504c0-1.382-1.122-2.503-2.505-2.503zm5.01 9.015H8.002c-.83 0-1.502-.673-1.502-1.503V8c0-.83.673-1.502 1.502-1.502H18.02c.83 0 1.502.673 1.502 1.502V18.02c0 .83-.672 1.502-1.502 1.502z" fill="#CCC" fill-rule="evenodd"/></svg><svg width="26" height="26" viewBox="0 0 26 26" id="icon-social_instagram-hover" x="230" y="78"><path d="M18.02 12.01h-1.134c.083.32.132.654.132 1 0 2.214-1.794 4.008-4.007 4.008-2.21 0-4.005-1.794-4.005-4.007 0-.346.05-.68.13-1H8.003v5.51c0 .275.225.5.502.5h9.015c.276 0 .5-.225.5-.5v-5.51zm0-3.507c0-.276-.224-.5-.5-.5h-1.504c-.276 0-.5.224-.5.5v1.503c0 .276.224.5.5.5h1.503c.276 0 .5-.224.5-.5V8.503zm-5.01 2.004c-1.382 0-2.503 1.12-2.503 2.504s1.12 2.505 2.504 2.505 2.506-1.12 2.506-2.504c0-1.382-1.122-2.503-2.505-2.503zm5.01 9.015H8.002c-.83 0-1.502-.673-1.502-1.503V8c0-.83.673-1.502 1.502-1.502H18.02c.83 0 1.502.673 1.502 1.502V18.02c0 .83-.672 1.502-1.502 1.502z" fill="#517FA4" fill-rule="evenodd"/></svg><svg width="26" height="26" viewBox="0 0 26 26" id="icon-social_pinterest" x="256" y="78"><path d="M12.813 6.5C9.327 6.5 6.5 9.46 6.5 13.113c0 2.708 1.554 5.034 3.78 6.057-.02-.462-.005-1.016.11-1.518l.81-3.604s-.2-.422-.2-1.046c0-.98.54-1.712 1.217-1.712.574 0 .85.452.85.993 0 .605-.367 1.51-.556 2.347-.158.7.336 1.273.997 1.273 1.196 0 2.002-1.61 2.002-3.516 0-1.45-.933-2.534-2.628-2.534-1.915 0-3.108 1.496-3.108 3.167 0 .576.162.983.416 1.297.117.145.133.203.09.37l-.128.53c-.042.167-.17.227-.316.165-.882-.377-1.292-1.39-1.292-2.527 0-1.878 1.512-4.13 4.51-4.13 2.41 0 3.998 1.826 3.998 3.788 0 2.594-1.377 4.532-3.407 4.532-.68 0-1.322-.386-1.542-.824 0 0-.366 1.524-.444 1.82-.135.508-.397 1.018-.636 1.415.567.176 1.167.27 1.79.27 3.485 0 6.31-2.96 6.31-6.612S16.3 6.5 12.815 6.5" fill="#000" fill-rule="evenodd"/></svg><svg width="26" height="26" viewBox="0 0 26 26" id="icon-social_pinterest-active" y="128"><path d="M12.813 6.5C9.327 6.5 6.5 9.46 6.5 13.113c0 2.708 1.554 5.034 3.78 6.057-.02-.462-.005-1.016.11-1.518l.81-3.604s-.2-.422-.2-1.046c0-.98.54-1.712 1.217-1.712.574 0 .85.452.85.993 0 .605-.367 1.51-.556 2.347-.158.7.336 1.273.997 1.273 1.196 0 2.002-1.61 2.002-3.516 0-1.45-.933-2.534-2.628-2.534-1.915 0-3.108 1.496-3.108 3.167 0 .576.162.983.416 1.297.117.145.133.203.09.37l-.128.53c-.042.167-.17.227-.316.165-.882-.377-1.292-1.39-1.292-2.527 0-1.878 1.512-4.13 4.51-4.13 2.41 0 3.998 1.826 3.998 3.788 0 2.594-1.377 4.532-3.407 4.532-.68 0-1.322-.386-1.542-.824 0 0-.366 1.524-.444 1.82-.135.508-.397 1.018-.636 1.415.567.176 1.167.27 1.79.27 3.485 0 6.31-2.96 6.31-6.612S16.3 6.5 12.815 6.5" fill="#CCC" fill-rule="evenodd"/></svg><svg width="26" height="26" viewBox="0 0 26 26" id="icon-social_tumblr" x="26" y="128"><path d="M15.83 16.883c-.258.116-.753.216-1.123.225-1.114.028-1.33-.73-1.34-1.282V11.78h2.795V9.81h-2.784V6.5h-2.04c-.033 0-.092.027-.1.097C11.12 7.61 10.612 9.39 8.5 10.1v1.68h1.41v4.247c0 1.454 1.147 3.52 4.18 3.472 1.022-.017 2.158-.418 2.41-.762l-.67-1.855" fill="#000" fill-rule="evenodd"/></svg><svg width="26" height="26" viewBox="0 0 26 26" id="icon-social_tumblr-active" x="52" y="128"><path d="M15.83 16.883c-.258.116-.753.216-1.123.225-1.114.028-1.33-.73-1.34-1.282V11.78h2.795V9.81h-2.784V6.5h-2.04c-.033 0-.092.027-.1.097C11.12 7.61 10.612 9.39 8.5 10.1v1.68h1.41v4.247c0 1.454 1.147 3.52 4.18 3.472 1.022-.017 2.158-.418 2.41-.762l-.67-1.855" fill="#CCC" fill-rule="evenodd"/></svg><svg width="26" height="26" viewBox="0 0 26 26" id="icon-social_tumblr-hover" x="78" y="128"><path d="M15.83 16.883c-.258.116-.753.216-1.123.225-1.114.028-1.33-.73-1.34-1.282V11.78h2.795V9.81h-2.784V6.5h-2.04c-.033 0-.092.027-.1.097C11.12 7.61 10.612 9.39 8.5 10.1v1.68h1.41v4.247c0 1.454 1.147 3.52 4.18 3.472 1.022-.017 2.158-.418 2.41-.762l-.67-1.855" fill="#3F5266" fill-rule="evenodd"/></svg><svg width="26" height="26" viewBox="0 0 26 26" id="icon-social_twitter" x="182" y="154"><path d="M19.85 8.956c-.473.212-.984.355-1.52.42.547-.33.967-.853 1.165-1.476-.512.306-1.078.528-1.682.647-.482-.518-1.17-.842-1.932-.842-1.46 0-2.647 1.194-2.647 2.667 0 .21.024.412.07.607-2.2-.112-4.153-1.173-5.458-2.787-.228.394-.36.852-.36 1.34 0 .926.47 1.742 1.18 2.22-.435-.014-.843-.134-1.2-.333v.033c0 1.292.912 2.37 2.123 2.615-.222.06-.456.094-.697.094-.17 0-.336-.017-.497-.048.337 1.06 1.314 1.83 2.473 1.852-.906.715-2.048 1.14-3.288 1.14-.214 0-.425-.012-.632-.036 1.172.756 2.564 1.198 4.06 1.198 4.87 0 7.532-4.063 7.532-7.587 0-.115-.003-.23-.008-.344.517-.376.966-.846 1.32-1.38" fill="#000" fill-rule="evenodd"/></svg><svg width="26" height="26" viewBox="0 0 26 26" id="icon-social_twitter-active" x="130" y="128"><path d="M19.85 8.956c-.473.212-.984.355-1.52.42.547-.33.967-.853 1.165-1.476-.512.306-1.078.528-1.682.647-.482-.518-1.17-.842-1.932-.842-1.46 0-2.647 1.194-2.647 2.667 0 .21.024.412.07.607-2.2-.112-4.153-1.173-5.458-2.787-.228.394-.36.852-.36 1.34 0 .926.47 1.742 1.18 2.22-.435-.014-.843-.134-1.2-.333v.033c0 1.292.912 2.37 2.123 2.615-.222.06-.456.094-.697.094-.17 0-.336-.017-.497-.048.337 1.06 1.314 1.83 2.473 1.852-.906.715-2.048 1.14-3.288 1.14-.214 0-.425-.012-.632-.036 1.172.756 2.564 1.198 4.06 1.198 4.87 0 7.532-4.063 7.532-7.587 0-.115-.003-.23-.008-.344.517-.376.966-.846 1.32-1.38" fill="#CCC" fill-rule="evenodd"/></svg><svg width="26" height="26" viewBox="0 0 26 26" id="icon-social_twitter-hover" x="156" y="128"><path d="M19.85 8.956c-.473.212-.984.355-1.52.42.547-.33.967-.853 1.165-1.476-.512.306-1.078.528-1.682.647-.482-.518-1.17-.842-1.932-.842-1.46 0-2.647 1.194-2.647 2.667 0 .21.024.412.07.607-2.2-.112-4.153-1.173-5.458-2.787-.228.394-.36.852-.36 1.34 0 .926.47 1.742 1.18 2.22-.435-.014-.843-.134-1.2-.333v.033c0 1.292.912 2.37 2.123 2.615-.222.06-.456.094-.697.094-.17 0-.336-.017-.497-.048.337 1.06 1.314 1.83 2.473 1.852-.906.715-2.048 1.14-3.288 1.14-.214 0-.425-.012-.632-.036 1.172.756 2.564 1.198 4.06 1.198 4.87 0 7.532-4.063 7.532-7.587 0-.115-.003-.23-.008-.344.517-.376.966-.846 1.32-1.38" fill="#4099FF" fill-rule="evenodd"/></svg><svg width="26" height="26" viewBox="0 0 26 26" id="icon-social_wechat" x="182" y="128"><path d="M7.692 15.125c-1.313-.973-2.1-2.226-2.1-3.753 0-2.644 2.363-4.726 5.248-4.726 2.58 0 4.84 1.663 5.294 3.903-.167-.02-.336-.034-.506-.034-2.492 0-4.46 1.97-4.46 4.4 0 .403.06.792.162 1.163-.162.012-.326.02-.49.02-.655 0-1.182-.14-1.838-.278l-1.834.974.524-1.67zM9.135 9.01c-.393 0-.79.274-.79.692 0 .417.397.696.79.696s.655-.28.655-.696c0-.418-.262-.693-.655-.693zm3.672 1.388c.395 0 .657-.28.657-.696 0-.418-.262-.693-.657-.693-.393 0-.788.274-.788.692 0 .417.394.696.787.696zm-1.31 4.45c0-2.222 1.967-4.034 4.463-4.034 2.358 0 4.457 1.812 4.457 4.034 0 1.253-.784 2.363-1.838 3.2l.394 1.39-1.44-.836c-.524.14-1.05.28-1.574.28-2.496 0-4.462-1.808-4.462-4.034zM17.4 13.04c-.26 0-.522.28-.522.556 0 .28.262.556.522.556.393 0 .656-.275.656-.556 0-.277-.263-.556-.656-.556zm-2.886 0c-.262 0-.525.28-.525.556 0 .28.262.556.524.556.396 0 .656-.275.656-.556 0-.277-.26-.556-.656-.556z" fill="#000" fill-rule="evenodd"/></svg><svg width="26" height="26" viewBox="0 0 26 26" id="icon-social_wechat-active" x="208" y="128"><path d="M7.692 15.125c-1.313-.973-2.1-2.226-2.1-3.753 0-2.644 2.363-4.726 5.248-4.726 2.58 0 4.84 1.663 5.294 3.903-.167-.02-.336-.034-.506-.034-2.492 0-4.46 1.97-4.46 4.4 0 .403.06.792.162 1.163-.162.012-.326.02-.49.02-.655 0-1.182-.14-1.838-.278l-1.834.974.524-1.67zM9.135 9.01c-.393 0-.79.274-.79.692 0 .417.397.696.79.696s.655-.28.655-.696c0-.418-.262-.693-.655-.693zm3.672 1.388c.395 0 .657-.28.657-.696 0-.418-.262-.693-.657-.693-.393 0-.788.274-.788.692 0 .417.394.696.787.696zm-1.31 4.45c0-2.222 1.967-4.034 4.463-4.034 2.358 0 4.457 1.812 4.457 4.034 0 1.253-.784 2.363-1.838 3.2l.394 1.39-1.44-.836c-.524.14-1.05.28-1.574.28-2.496 0-4.462-1.808-4.462-4.034zM17.4 13.04c-.26 0-.522.28-.522.556 0 .28.262.556.522.556.393 0 .656-.275.656-.556 0-.277-.263-.556-.656-.556zm-2.886 0c-.262 0-.525.28-.525.556 0 .28.262.556.524.556.396 0 .656-.275.656-.556 0-.277-.26-.556-.656-.556z" fill="#CCC" fill-rule="evenodd"/></svg><svg width="26" height="26" viewBox="0 0 26 26" id="icon-social_wechat-hover" x="234" y="128"><path d="M7.692 15.125c-1.313-.973-2.1-2.226-2.1-3.753 0-2.644 2.363-4.726 5.248-4.726 2.58 0 4.84 1.663 5.294 3.903-.167-.02-.336-.034-.506-.034-2.492 0-4.46 1.97-4.46 4.4 0 .403.06.792.162 1.163-.162.012-.326.02-.49.02-.655 0-1.182-.14-1.838-.278l-1.834.974.524-1.67zM9.135 9.01c-.393 0-.79.274-.79.692 0 .417.397.696.79.696s.655-.28.655-.696c0-.418-.262-.693-.655-.693zm3.672 1.388c.395 0 .657-.28.657-.696 0-.418-.262-.693-.657-.693-.393 0-.788.274-.788.692 0 .417.394.696.787.696zm-1.31 4.45c0-2.222 1.967-4.034 4.463-4.034 2.358 0 4.457 1.812 4.457 4.034 0 1.253-.784 2.363-1.838 3.2l.394 1.39-1.44-.836c-.524.14-1.05.28-1.574.28-2.496 0-4.462-1.808-4.462-4.034zM17.4 13.04c-.26 0-.522.28-.522.556 0 .28.262.556.522.556.393 0 .656-.275.656-.556 0-.277-.263-.556-.656-.556zm-2.886 0c-.262 0-.525.28-.525.556 0 .28.262.556.524.556.396 0 .656-.275.656-.556 0-.277-.26-.556-.656-.556z" fill="#9C6" fill-rule="evenodd"/></svg><svg width="26" height="26" viewBox="0 0 26 26" id="icon-social_weibo" x="260" y="128"><g transform="translate(6.5 7.5)" fill="#000" fill-rule="evenodd"><path d="M11.003 6.87c-.5-.517-1.11-.636-1.235-.692-.125-.055-.172-.11-.117-.302.056-.19.236-.548.173-.946-.062-.398-.328-.708-.867-.827-.54-.12-1.492.12-1.742.222-.25.104-.547.223-.547.223s-.36.183-.227-.278c.133-.46.188-.962-.055-1.328-.242-.366-.797-.58-1.742-.263-.945.317-1.758.985-1.758.985C2.01 4.413.97 5.44.415 6.625-.137 7.808.02 8.468.042 8.762c.025.294.408 1.55 2.322 2.433 1.094.478 3.594 1.034 5.57.28 1.977-.757 2.727-1.4 3.422-2.793.102-.286.305-1.137-.35-1.813M9.01 9.065c-.61 1.098-1.89 1.75-3.007 1.91-2.126.237-3.094-.216-3.844-.757-.75-.54-1.04-1.558-.775-2.17.266-.613.617-1.066 1.47-1.615.85-.55 1.647-.644 2.773-.7 1.36-.024 2.484.47 3.18 1.28.695.812.374 1.734.203 2.052"/><path d="M6.393 7.153c-.336-.26-1.156-.49-1.82-.29-.61.206-1.22.604-1.54 1.312-.32.707.048 1.343.173 1.542.124.2.812.843 1.734.756.922-.088 1.734-.597 2.055-1.527.32-.93-.266-1.534-.602-1.793m-1.68 2.405c-.382.28-.79.12-.953-.055-.164-.175-.218-.54 0-.812.22-.27.446-.325.758-.35.047-.002.328.01.46.272.134.262.118.668-.265.946m.672-.994c-.11.008-.242-.055-.242-.214 0-.16.102-.27.242-.32.14-.007.282-.023.305.208.023.23-.195.318-.305.326M10.815 2.266c-.953-.414-1.297-.215-1.726-.215-.43 0-.51-.325-.51-.484 0-.16-.1-.576 1.118-.576 1.22 0 1.938.52 2.5 1.093l.168.205c.487.64.904 1.372.75 2.603-.152 1.232-.55 1.072-.704 1.052-.155-.02-.428-.175-.374-.61.054-.433.26-.656-.024-1.67-.223-.614-.628-1.094-1.2-1.396"/><path d="M10.438 4.217c.062.15.01.397-.002.58-.02.308.146.54.37.565.22.025.518-.06.54-.66.058-1.434-1.072-1.906-1.66-1.906-.59 0-.704.25-.704.477 0 .228.208.435.51.435.302 0 .35-.01.505.037.18.058.323.212.44.472"/></g></svg><svg width="26" height="26" viewBox="0 0 26 26" id="icon-social_weibo-active" y="154"><g transform="translate(6.5 7.5)" fill="#CCC" fill-rule="evenodd"><path d="M11.003 6.87c-.5-.517-1.11-.636-1.235-.692-.125-.055-.172-.11-.117-.302.056-.19.236-.548.173-.946-.062-.398-.328-.708-.867-.827-.54-.12-1.492.12-1.742.222-.25.104-.547.223-.547.223s-.36.183-.227-.278c.133-.46.188-.962-.055-1.328-.242-.366-.797-.58-1.742-.263-.945.317-1.758.985-1.758.985C2.01 4.413.97 5.44.415 6.625-.137 7.808.02 8.468.042 8.762c.025.294.408 1.55 2.322 2.433 1.094.478 3.594 1.034 5.57.28 1.977-.757 2.727-1.4 3.422-2.793.102-.286.305-1.137-.35-1.813M9.01 9.065c-.61 1.098-1.89 1.75-3.007 1.91-2.126.237-3.094-.216-3.844-.757-.75-.54-1.04-1.558-.775-2.17.266-.613.617-1.066 1.47-1.615.85-.55 1.647-.644 2.773-.7 1.36-.024 2.484.47 3.18 1.28.695.812.374 1.734.203 2.052"/><path d="M6.393 7.153c-.336-.26-1.156-.49-1.82-.29-.61.206-1.22.604-1.54 1.312-.32.707.048 1.343.173 1.542.124.2.812.843 1.734.756.922-.088 1.734-.597 2.055-1.527.32-.93-.266-1.534-.602-1.793m-1.68 2.405c-.382.28-.79.12-.953-.055-.164-.175-.218-.54 0-.812.22-.27.446-.325.758-.35.047-.002.328.01.46.272.134.262.118.668-.265.946m.672-.994c-.11.008-.242-.055-.242-.214 0-.16.102-.27.242-.32.14-.007.282-.023.305.208.023.23-.195.318-.305.326M10.815 2.266c-.953-.414-1.297-.215-1.726-.215-.43 0-.51-.325-.51-.484 0-.16-.1-.576 1.118-.576 1.22 0 1.938.52 2.5 1.093l.168.205c.487.64.904 1.372.75 2.603-.152 1.232-.55 1.072-.704 1.052-.155-.02-.428-.175-.374-.61.054-.433.26-.656-.024-1.67-.223-.614-.628-1.094-1.2-1.396"/><path d="M10.438 4.217c.062.15.01.397-.002.58-.02.308.146.54.37.565.22.025.518-.06.54-.66.058-1.434-1.072-1.906-1.66-1.906-.59 0-.704.25-.704.477 0 .228.208.435.51.435.302 0 .35-.01.505.037.18.058.323.212.44.472"/></g></svg><svg width="26" height="26" viewBox="0 0 26 26" id="icon-social_weibo-hover" x="26" y="154"><g transform="translate(6.5 7.5)" fill="#E92224" fill-rule="evenodd"><path d="M11.003 6.87c-.5-.517-1.11-.636-1.235-.692-.125-.055-.172-.11-.117-.302.056-.19.236-.548.173-.946-.062-.398-.328-.708-.867-.827-.54-.12-1.492.12-1.742.222-.25.104-.547.223-.547.223s-.36.183-.227-.278c.133-.46.188-.962-.055-1.328-.242-.366-.797-.58-1.742-.263-.945.317-1.758.985-1.758.985C2.01 4.413.97 5.44.415 6.625-.137 7.808.02 8.468.042 8.762c.025.294.408 1.55 2.322 2.433 1.094.478 3.594 1.034 5.57.28 1.977-.757 2.727-1.4 3.422-2.793.102-.286.305-1.137-.35-1.813M9.01 9.065c-.61 1.098-1.89 1.75-3.007 1.91-2.126.237-3.094-.216-3.844-.757-.75-.54-1.04-1.558-.775-2.17.266-.613.617-1.066 1.47-1.615.85-.55 1.647-.644 2.773-.7 1.36-.024 2.484.47 3.18 1.28.695.812.374 1.734.203 2.052"/><path d="M6.393 7.153c-.336-.26-1.156-.49-1.82-.29-.61.206-1.22.604-1.54 1.312-.32.707.048 1.343.173 1.542.124.2.812.843 1.734.756.922-.088 1.734-.597 2.055-1.527.32-.93-.266-1.534-.602-1.793m-1.68 2.405c-.382.28-.79.12-.953-.055-.164-.175-.218-.54 0-.812.22-.27.446-.325.758-.35.047-.002.328.01.46.272.134.262.118.668-.265.946m.672-.994c-.11.008-.242-.055-.242-.214 0-.16.102-.27.242-.32.14-.007.282-.023.305.208.023.23-.195.318-.305.326M10.815 2.266c-.953-.414-1.297-.215-1.726-.215-.43 0-.51-.325-.51-.484 0-.16-.1-.576 1.118-.576 1.22 0 1.938.52 2.5 1.093l.168.205c.487.64.904 1.372.75 2.603-.152 1.232-.55 1.072-.704 1.052-.155-.02-.428-.175-.374-.61.054-.433.26-.656-.024-1.67-.223-.614-.628-1.094-1.2-1.396"/><path d="M10.438 4.217c.062.15.01.397-.002.58-.02.308.146.54.37.565.22.025.518-.06.54-.66.058-1.434-1.072-1.906-1.66-1.906-.59 0-.704.25-.704.477 0 .228.208.435.51.435.302 0 .35-.01.505.037.18.058.323.212.44.472"/></g></svg><svg width="26" height="26" viewBox="0 0 26 26" id="icon-social_youtube" x="52" y="154"><path d="M20.462 9.788c-.14-.794-.784-1.112-1.186-1.147-.402-.034-3.46-.14-6.175-.14-2.714 0-5.77.106-6.173.14-.402.036-1.045.354-1.186 1.148-.14.794-.24.81-.24 3.175 0 2.364.2 3.246.2 3.246s-.02.88.906 1.022c.924.142 4.006.177 6.495.177 2.49 0 5.573-.036 6.497-.178.925-.14.905-1.023.905-1.023s.2-1.112.2-3.247c0-2.134-.1-2.38-.24-3.175m-9.173 5.84v-5.68l5.064 2.786-5.065 2.893" fill="#000" fill-rule="evenodd"/></svg><svg width="26" height="26" viewBox="0 0 26 26" id="icon-social_youtube-active" x="78" y="154"><path d="M20.462 9.788c-.14-.794-.784-1.112-1.186-1.147-.402-.034-3.46-.14-6.175-.14-2.714 0-5.77.106-6.173.14-.402.036-1.045.354-1.186 1.148-.14.794-.24.81-.24 3.175 0 2.364.2 3.246.2 3.246s-.02.88.906 1.022c.924.142 4.006.177 6.495.177 2.49 0 5.573-.036 6.497-.178.925-.14.905-1.023.905-1.023s.2-1.112.2-3.247c0-2.134-.1-2.38-.24-3.175m-9.173 5.84v-5.68l5.064 2.786-5.065 2.893" fill="#CCC" fill-rule="evenodd"/></svg><svg width="26" height="26" viewBox="0 0 26 26" id="icon-social_youtube-hover" x="104" y="154"><path d="M20.462 9.788c-.14-.794-.784-1.112-1.186-1.147-.402-.034-3.46-.14-6.175-.14-2.714 0-5.77.106-6.173.14-.402.036-1.045.354-1.186 1.148-.14.794-.24.81-.24 3.175 0 2.364.2 3.246.2 3.246s-.02.88.906 1.022c.924.142 4.006.177 6.495.177 2.49 0 5.573-.036 6.497-.178.925-.14.905-1.023.905-1.023s.2-1.112.2-3.247c0-2.134-.1-2.38-.24-3.175m-9.173 5.84v-5.68l5.064 2.786-5.065 2.893" fill="#B00" fill-rule="evenodd"/></svg><svg width="25" height="25" viewBox="0 0 25 25" id="icon-tick_black" x="200" y="230"><path d="M8.97 14.18l3.036 2.076L16.25 8.97" stroke="#000" stroke-width="2" fill="none" fill-rule="evenodd" stroke-linecap="round" stroke-linejoin="round"/></svg><svg width="25" height="25" viewBox="0 0 25 25" id="icon-tick_white" x="225" y="230"><path d="M8.97 14.18l3.036 2.076L16.25 8.97" stroke="#FFF" stroke-width="2" fill="none" fill-rule="evenodd" stroke-linecap="round" stroke-linejoin="round"/></svg><svg width="40" height="40" viewBox="0 0 40 40" id="icon-video_pause" x="200" y="28"><path d="M20 0C8.954 0 0 8.956 0 20c0 11.047 8.955 20.002 20 20.002 11.047 0 20-8.955 20-20C40 8.955 31.047 0 20 0zm-2 27h-3V14h3v13zm7 0h-3V14h3v13z" fill="#000" fill-rule="evenodd" opacity=".8"/></svg><svg width="40" height="40" viewBox="0 0 40 40" id="icon-video_play" x="240" y="28"><path d="M20 0C8.954 0 0 8.954 0 20c0 11.045 8.954 20 20 20s20-8.955 20-20C40 8.954 31.046 0 20 0zm-3 26V15l8 5.547L17 26z" fill="#000" fill-rule="evenodd" opacity=".8"/></svg><svg width="100" height="100" viewBox="0 0 100 100" id="icon-video_play-mobile" y="28"><path d="M50 0C22.386 0 0 22.386 0 50c0 27.61 22.386 50 50 50s50-22.39 50-50c0-27.614-22.386-50-50-50zm-7.5 65V37.5l20 13.867L42.5 65z" fill="#FFF" fill-rule="evenodd" opacity=".8"/></svg><svg width="25" height="25" viewBox="0 0 25 25" id="icon-wishlist_empty" x="50" y="255"><path d="M12.5 17.5l-5.584 2.78 1.066-5.89-4.517-4.17 6.243-.86L12.5 4l2.792 5.36 6.243.86-4.517 4.17 1.066 5.89" fill="#000" fill-rule="evenodd"/></svg><svg width="25" height="25" viewBox="0 0 25 25" id="icon-wishlist_empty-active" x="75" y="255"><path d="M12.5 17.5l-5.584 2.78 1.066-5.89-4.517-4.17 6.243-.86L12.5 4l2.792 5.36 6.243.86-4.517 4.17 1.066 5.89" fill="#CCC" fill-rule="evenodd"/></svg><svg width="25" height="25" viewBox="0 0 25 25" id="icon-wishlist_empty-active-rollover" x="100" y="255"><path d="M12.5 18l-6.172 3.09 1.18-6.545L2.513 9.91l6.9-.955L12.5 3l3.086 5.955 6.9.955-4.993 4.635 1.18 6.545" fill="#CCC" fill-rule="evenodd"/></svg><svg width="25" height="25" viewBox="0 0 25 25" id="icon-wishlist_empty-rollover" x="125" y="255"><path d="M12.5 18l-6.172 3.09 1.18-6.545L2.513 9.91l6.9-.955L12.5 3l3.086 5.955 6.9.955-4.993 4.635 1.18 6.545" fill="#000" fill-rule="evenodd"/></svg><svg width="25" height="25" viewBox="0 0 25 25" id="icon-wishlist_item" x="150" y="255"><g transform="translate(3 3)" fill="none" fill-rule="evenodd"><path fill="#000" d="M9.5 14.5l-5.584 2.78 1.066-5.89L.465 7.22l6.243-.86L9.5 1l2.792 5.36 6.243.86-4.517 4.17 1.066 5.89"/><ellipse stroke="#FFF" fill="#D0011B" cx="14" cy="3.5" rx="3.5" ry="3.5"/></g></svg><svg width="25" height="25" viewBox="0 0 25 25" id="icon-wishlist_item-active" x="175" y="255"><g transform="translate(3 3)" fill="none" fill-rule="evenodd"><path fill="#CCC" d="M9.5 14.5l-5.584 2.78 1.066-5.89L.465 7.22l6.243-.86L9.5 1l2.792 5.36 6.243.86-4.517 4.17 1.066 5.89"/><ellipse stroke="#FFF" fill="#D0011B" cx="14" cy="3.5" rx="3.5" ry="3.5"/></g></svg><svg width="25" height="25" viewBox="0 0 25 25" id="icon-wishlist_item-active-rollover" x="200" y="255"><g transform="translate(2 2)" fill="none" fill-rule="evenodd"><path fill="#CCC" d="M10.5 16l-6.172 3.09 1.18-6.545L.513 7.91l6.9-.955L10.5 1l3.086 5.955 6.9.955-4.993 4.635 1.18 6.545"/><ellipse stroke="#FFF" fill="#D0011B" cx="15.5" cy="4" rx="4" ry="4"/></g></svg><svg width="25" height="25" viewBox="0 0 25 25" id="icon-wishlist_item-rollover" x="250" y="180"><g transform="translate(2 2)" fill="none" fill-rule="evenodd"><path fill="#000" d="M10.5 16l-6.172 3.09 1.18-6.545L.513 7.91l6.9-.955L10.5 1l3.086 5.955 6.9.955-4.993 4.635 1.18 6.545"/><ellipse stroke="#FFF" fill="#D0011B" cx="15.5" cy="4" rx="4" ry="4"/></g></svg></svg>